<mxfile host="app.diagrams.net" modified="2023-04-24T13:26:34.200Z" agent="Mozilla/5.0 (Windows NT 10.0; Win64; x64) AppleWebKit/537.36 (KHTML, like Gecko) Chrome/112.0.0.0 Safari/537.36" etag="XHimFkjmimpjDbBzgDHb" version="21.1.1" type="device">
  <diagram id="rQD_Hb7clvqYF0GgANri" name="Seite-1">
    <mxGraphModel dx="681" dy="411" grid="1" gridSize="10" guides="1" tooltips="1" connect="1" arrows="1" fold="1" page="1" pageScale="1" pageWidth="827" pageHeight="1169" math="0" shadow="0">
      <root>
        <mxCell id="0" />
        <mxCell id="1" parent="0" />
        <mxCell id="GxD-A043HYMKnws2qZVp-2" value="" style="ellipse;whiteSpace=wrap;html=1;" parent="1" vertex="1">
          <mxGeometry x="354" y="400" width="120" height="80" as="geometry" />
        </mxCell>
        <mxCell id="GxD-A043HYMKnws2qZVp-3" value="Gluenet" style="text;html=1;strokeColor=none;fillColor=none;align=center;verticalAlign=middle;whiteSpace=wrap;rounded=0;" parent="1" vertex="1">
          <mxGeometry x="384" y="425" width="60" height="30" as="geometry" />
        </mxCell>
        <mxCell id="GxD-A043HYMKnws2qZVp-5" value="" style="ellipse;whiteSpace=wrap;html=1;" parent="1" vertex="1">
          <mxGeometry x="354" y="270" width="120" height="80" as="geometry" />
        </mxCell>
        <mxCell id="GxD-A043HYMKnws2qZVp-6" value="www" style="text;html=1;strokeColor=none;fillColor=none;align=center;verticalAlign=middle;whiteSpace=wrap;rounded=0;" parent="1" vertex="1">
          <mxGeometry x="384" y="295" width="60" height="30" as="geometry" />
        </mxCell>
        <mxCell id="GxD-A043HYMKnws2qZVp-8" value="" style="ellipse;whiteSpace=wrap;html=1;fillColor=#fff2cc;strokeColor=#d6b656;" parent="1" vertex="1">
          <mxGeometry x="540" y="550" width="120" height="80" as="geometry" />
        </mxCell>
        <mxCell id="GxD-A043HYMKnws2qZVp-9" value="other network" style="text;html=1;strokeColor=none;fillColor=none;align=center;verticalAlign=middle;whiteSpace=wrap;rounded=0;" parent="1" vertex="1">
          <mxGeometry x="570" y="570" width="60" height="30" as="geometry" />
        </mxCell>
        <mxCell id="GxD-A043HYMKnws2qZVp-15" value="" style="ellipse;whiteSpace=wrap;html=1;fillColor=#fff2cc;strokeColor=#d6b656;" parent="1" vertex="1">
          <mxGeometry x="40" y="540" width="440" height="350" as="geometry" />
        </mxCell>
        <mxCell id="GxD-A043HYMKnws2qZVp-18" value="" style="endArrow=classic;html=1;rounded=0;entryX=0;entryY=1;entryDx=0;entryDy=0;exitX=0.769;exitY=0.072;exitDx=0;exitDy=0;exitPerimeter=0;" parent="1" source="GxD-A043HYMKnws2qZVp-15" target="GxD-A043HYMKnws2qZVp-2" edge="1">
          <mxGeometry relative="1" as="geometry">
            <mxPoint x="350" y="490" as="sourcePoint" />
            <mxPoint x="384" y="630" as="targetPoint" />
          </mxGeometry>
        </mxCell>
        <mxCell id="GxD-A043HYMKnws2qZVp-19" value="Label" style="edgeLabel;resizable=0;html=1;align=center;verticalAlign=middle;" parent="GxD-A043HYMKnws2qZVp-18" connectable="0" vertex="1">
          <mxGeometry relative="1" as="geometry" />
        </mxCell>
        <mxCell id="GxD-A043HYMKnws2qZVp-20" value="10.9.7.145" style="edgeLabel;resizable=0;html=1;align=left;verticalAlign=bottom;" parent="GxD-A043HYMKnws2qZVp-18" connectable="0" vertex="1">
          <mxGeometry x="-1" relative="1" as="geometry" />
        </mxCell>
        <mxCell id="GxD-A043HYMKnws2qZVp-21" value="10.9.7.252" style="edgeLabel;resizable=0;html=1;align=right;verticalAlign=bottom;" parent="GxD-A043HYMKnws2qZVp-18" connectable="0" vertex="1">
          <mxGeometry x="1" relative="1" as="geometry" />
        </mxCell>
        <mxCell id="GxD-A043HYMKnws2qZVp-23" value="" style="endArrow=classic;html=1;rounded=0;entryX=1;entryY=1;entryDx=0;entryDy=0;exitX=0;exitY=0;exitDx=0;exitDy=0;" parent="1" source="GxD-A043HYMKnws2qZVp-8" target="GxD-A043HYMKnws2qZVp-2" edge="1">
          <mxGeometry relative="1" as="geometry">
            <mxPoint x="260" y="550" as="sourcePoint" />
            <mxPoint x="420" y="550" as="targetPoint" />
          </mxGeometry>
        </mxCell>
        <mxCell id="GxD-A043HYMKnws2qZVp-24" value="Label" style="edgeLabel;resizable=0;html=1;align=center;verticalAlign=middle;" parent="GxD-A043HYMKnws2qZVp-23" connectable="0" vertex="1">
          <mxGeometry relative="1" as="geometry" />
        </mxCell>
        <mxCell id="GxD-A043HYMKnws2qZVp-25" value="Source" style="edgeLabel;resizable=0;html=1;align=left;verticalAlign=bottom;" parent="GxD-A043HYMKnws2qZVp-23" connectable="0" vertex="1">
          <mxGeometry x="-1" relative="1" as="geometry">
            <mxPoint x="-8" y="-12" as="offset" />
          </mxGeometry>
        </mxCell>
        <mxCell id="GxD-A043HYMKnws2qZVp-26" value="Target" style="edgeLabel;resizable=0;html=1;align=right;verticalAlign=bottom;" parent="GxD-A043HYMKnws2qZVp-23" connectable="0" vertex="1">
          <mxGeometry x="1" relative="1" as="geometry" />
        </mxCell>
        <mxCell id="GxD-A043HYMKnws2qZVp-27" value="" style="endArrow=classic;html=1;rounded=0;entryX=0.5;entryY=1;entryDx=0;entryDy=0;exitX=0.459;exitY=0.043;exitDx=0;exitDy=0;exitPerimeter=0;" parent="1" source="GxD-A043HYMKnws2qZVp-29" target="GxD-A043HYMKnws2qZVp-5" edge="1">
          <mxGeometry relative="1" as="geometry">
            <mxPoint x="370" y="460" as="sourcePoint" />
            <mxPoint x="470" y="460" as="targetPoint" />
          </mxGeometry>
        </mxCell>
        <mxCell id="GxD-A043HYMKnws2qZVp-32" value="" style="endArrow=classic;html=1;rounded=0;entryX=0.5;entryY=1;entryDx=0;entryDy=0;exitX=0.459;exitY=0.043;exitDx=0;exitDy=0;exitPerimeter=0;" parent="1" source="GxD-A043HYMKnws2qZVp-2" target="GxD-A043HYMKnws2qZVp-29" edge="1">
          <mxGeometry relative="1" as="geometry">
            <mxPoint x="409" y="403" as="sourcePoint" />
            <mxPoint x="414" y="350" as="targetPoint" />
          </mxGeometry>
        </mxCell>
        <mxCell id="GxD-A043HYMKnws2qZVp-29" value="10.9.7.254" style="text;html=1;strokeColor=none;fillColor=none;align=center;verticalAlign=middle;whiteSpace=wrap;rounded=0;" parent="1" vertex="1">
          <mxGeometry x="384" y="370" width="40" height="10" as="geometry" />
        </mxCell>
        <mxCell id="GxD-A043HYMKnws2qZVp-33" value="10.9.7.145-10.9.7.158" style="text;html=1;strokeColor=none;fillColor=none;align=center;verticalAlign=middle;whiteSpace=wrap;rounded=0;" parent="1" vertex="1">
          <mxGeometry x="195" y="575" width="130" height="30" as="geometry" />
        </mxCell>
        <mxCell id="GxD-A043HYMKnws2qZVp-37" value="" style="whiteSpace=wrap;html=1;aspect=fixed;" parent="1" vertex="1">
          <mxGeometry x="200" y="685" width="80" height="80" as="geometry" />
        </mxCell>
        <mxCell id="GxD-A043HYMKnws2qZVp-38" value="Ubuntu" style="text;html=1;strokeColor=none;fillColor=none;align=center;verticalAlign=middle;whiteSpace=wrap;rounded=0;" parent="1" vertex="1">
          <mxGeometry x="215" y="711.25" width="50" height="17.5" as="geometry" />
        </mxCell>
        <mxCell id="hHy_-KQqZqV9GTmHlNdd-1" value="" style="shape=cylinder3;whiteSpace=wrap;html=1;boundedLbl=1;backgroundOutline=1;size=15;" parent="1" vertex="1">
          <mxGeometry x="92.5" y="680" width="85" height="90" as="geometry" />
        </mxCell>
        <mxCell id="GxD-A043HYMKnws2qZVp-39" value="Gateway" style="text;html=1;strokeColor=none;fillColor=none;align=center;verticalAlign=middle;whiteSpace=wrap;rounded=0;" parent="1" vertex="1">
          <mxGeometry x="105" y="705" width="60" height="30" as="geometry" />
        </mxCell>
        <mxCell id="GxD-A043HYMKnws2qZVp-40" value="&lt;span style=&quot;font-size: 10px;&quot;&gt;10.9.7.145&lt;/span&gt;" style="text;html=1;strokeColor=none;fillColor=none;align=center;verticalAlign=middle;whiteSpace=wrap;rounded=0;" parent="1" vertex="1">
          <mxGeometry x="115" y="730" width="40" height="10" as="geometry" />
        </mxCell>
        <mxCell id="GxD-A043HYMKnws2qZVp-42" value="&lt;span style=&quot;font-size: 10px;&quot;&gt;10.9.7.146&lt;/span&gt;" style="text;html=1;strokeColor=none;fillColor=none;align=center;verticalAlign=middle;whiteSpace=wrap;rounded=0;" parent="1" vertex="1">
          <mxGeometry x="215" y="730" width="50" height="10" as="geometry" />
        </mxCell>
        <mxCell id="GxD-A043HYMKnws2qZVp-58" value="CONTAINER" style="text;html=1;strokeColor=none;fillColor=none;align=center;verticalAlign=middle;whiteSpace=wrap;rounded=0;fontStyle=4" parent="1" vertex="1">
          <mxGeometry x="112.5" y="687.5" width="45" height="15" as="geometry" />
        </mxCell>
        <mxCell id="GxD-A043HYMKnws2qZVp-61" value="&lt;u&gt;VM&lt;/u&gt;" style="text;html=1;strokeColor=none;fillColor=none;align=center;verticalAlign=middle;whiteSpace=wrap;rounded=0;" parent="1" vertex="1">
          <mxGeometry x="210" y="681.25" width="60" height="30" as="geometry" />
        </mxCell>
        <mxCell id="FHV9-m06zW6-vn1TYNV9-1" value="" style="shape=cylinder3;whiteSpace=wrap;html=1;boundedLbl=1;backgroundOutline=1;size=15;" vertex="1" parent="1">
          <mxGeometry x="310" y="681.25" width="90" height="88.75" as="geometry" />
        </mxCell>
        <mxCell id="FHV9-m06zW6-vn1TYNV9-2" value="Webserver" style="text;html=1;strokeColor=none;fillColor=none;align=center;verticalAlign=middle;whiteSpace=wrap;rounded=0;" vertex="1" parent="1">
          <mxGeometry x="325" y="710" width="65" height="30" as="geometry" />
        </mxCell>
      </root>
    </mxGraphModel>
  </diagram>
</mxfile>
